# xmcd CD database file
#
# Track frame offsets:
#	150
#	12862
#	24004
#	39318
#	53650
#	65651
#	75303
#	84909
#	94973
#	106675
#
# Disc length: 1603 seconds
#
# Revision: 0
# Processed by: cddbd v1.4PL0 Copyright (c) Steve Scherf et al.
# Submitted via: CDex 1.50Beta6
#
DISCID=6006410a
DTITLE=Tommy Allsup - True Love Ways
DYEAR=2001
DGENRE=Country
TTITLE0=True Love Ways
TTITLE1=Sweet Dreams
TTITLE2=I Love You Because
TTITLE3=Am I Losing You
TTITLE4=Four Walls
TTITLE5=Hello Walls
TTITLE6=Rose Colored Glasses
TTITLE7=It Don't Hurt Anymore
TTITLE8=Four In The Morning
TTITLE9=Detroit City
EXTD=YEAR: 2001
EXTT0=
EXTT1=
EXTT2=
EXTT3=
EXTT4=
EXTT5=
EXTT6=
EXTT7=
EXTT8=
EXTT9=
PLAYORDER=
